<svg width="18" height="18" viewBox="0 0 18 18" xmlns="http://www.w3.org/2000/svg" aria-hidden="true" focusable="false">
  <g fill="none" fill-rule="evenodd">
    <path d="M17.64 9.2045c0-.638-.0573-1.2515-.1636-1.8409H9v3.4818h4.8445c-.2086 1.125-.8427 2.0782-1.7936 2.7164v2.2582h2.9082c1.7018-1.5664 2.6818-3.8749 2.6818-6.6155z" fill="#4285F4"/>
    <path d="M9 18c2.43 0 4.4673-.8064 5.9564-2.1818l-2.9082-2.2582c-.8064.54-1.8373.8591-3.0482.8591-2.3455 0-4.3282-1.5818-5.0373-3.7109H0.9564v2.3318C2.4382 15.9827 5.4818 18 9 18z" fill="#34A853"/>
    <path d="M3.9627 10.7082C3.7809 10.1682 3.6773 9.5909 3.6773 9s.1036-1.1682.2854-1.7082V4.96H0.9564C0.3473 6.1736 0 7.5473 0 9s.3473 2.8264.9564 4.04l3.0063-2.3318z" fill="#FBBC05"/>
    <path d="M9 3.5809c1.3218 0 2.5073.4545 3.4427 1.3464l2.5818-2.5818C13.4636.891 11.4264 0 9 0 5.4818 0 2.4382 2.0173.9564 4.96l3.0063 2.3318C4.6718 5.1627 6.6545 3.5809 9 3.5809z" fill="#EA4335"/>
  </g>
</svg>
